<?xml version="1.0" standalone="no"?>
<!DOCTYPE svg PUBLIC "-//W3C//DTD SVG 20010904//EN"
 "http://www.w3.org/TR/2001/REC-SVG-20010904/DTD/svg10.dtd">
<svg version="1.0" xmlns="http://www.w3.org/2000/svg"
 width="270.000000pt" height="250.000000pt" viewBox="0 0 1920.000000 1920.000000"
 preserveAspectRatio="xMidYMid meet">

<g transform="translate(0.000000,1920.000000) scale(0.100000,-0.100000)"
fill="#000000" stroke="none">
<path d="M7593 13790 c-48 -19 -50 -40 -62 -470 -13 -505 -8 -549 81 -722 43
-84 107 -162 181 -224 42 -34 47 -43 42 -69 -51 -289 -22 -706 77 -1100 69
-278 142 -481 262 -730 315 -654 752 -1053 1250 -1140 101 -17 300 -20 396 -5
182 29 393 117 555 231 108 77 318 282 403 396 317 420 550 989 643 1570 12
76 23 203 26 313 l6 185 -34 95 -34 95 -3 285 c-1 157 -5 295 -7 308 -4 16
-119 108 -379 302 l-373 279 -61 108 c-94 167 -150 228 -252 276 l-45 22
-1325 2 c-761 1 -1334 -2 -1347 -7z m2620 -191 c21 -5 53 -24 73 -41 33 -29
116 -161 160 -253 16 -34 77 -83 381 -310 l362 -270 1 -179 c0 -139 -3 -177
-12 -173 -7 3 -131 62 -275 132 -228 110 -268 126 -305 123 -37 -3 -46 -9 -76
-48 -78 -105 -116 -143 -171 -169 l-56 -26 -1025 -3 c-1143 -3 -1101 -5 -1243
65 -135 68 -254 214 -292 358 -17 66 -19 241 -8 593 l6 212 1221 0 c821 0
1233 -4 1259 -11z m732 -1333 l260 -125 27 -78 c31 -88 35 -154 18 -324 -60
-605 -308 -1253 -645 -1684 -87 -112 -265 -280 -367 -348 -296 -197 -612 -245
-927 -141 -186 61 -347 167 -511 333 -364 368 -650 990 -762 1657 -20 121 -23
173 -23 401 0 144 2 264 5 267 3 3 39 -5 80 -17 l75 -22 1070 0 1070 0 64 23
c83 30 155 78 217 145 39 42 53 52 69 46 11 -4 137 -64 280 -133z"/>
<path d="M8989 10615 c-33 -18 -53 -64 -44 -104 18 -83 276 -208 505 -246 238
-38 473 2 717 122 127 63 153 88 153 146 0 38 -5 49 -31 71 -41 35 -79 33
-149 -8 -82 -48 -181 -91 -275 -118 -70 -20 -101 -23 -245 -22 -150 0 -173 3
-253 27 -92 28 -172 66 -253 117 -52 33 -85 37 -125 15z"/>
<path d="M15287 12449 c-83 -44 -121 -163 -79 -246 44 -85 125 -124 215 -102
100 24 164 130 137 228 -13 50 -63 109 -107 127 -46 20 -121 17 -166 -7z"/>
<path d="M2805 10401 c-50 -22 -60 -47 -65 -169 l-5 -117 -118 -5 c-115 -5
-120 -6 -143 -33 -33 -38 -33 -96 0 -134 23 -27 28 -28 143 -33 l118 -5 5
-115 c3 -63 9 -123 14 -132 12 -25 73 -50 105 -43 16 3 39 17 52 31 22 23 24
37 29 142 l5 117 118 5 c115 5 120 6 143 33 35 41 33 99 -5 138 -29 29 -31 29
-145 29 l-116 0 0 115 c0 111 -1 116 -27 145 -30 32 -75 45 -108 31z"/>
<path d="M8239 9128 l-201 -193 -206 -81 c-1137 -445 -1840 -728 -1862 -750
l-25 -24 -3 -1283 c-1 -705 0 -1296 3 -1313 3 -18 17 -43 31 -58 l27 -26
-1281 -2 -1280 -3 -26 -24 c-57 -54 -51 -145 13 -188 l34 -23 6239 0 c5556 0
6243 2 6272 15 60 29 83 103 51 165 -33 64 62 60 -1451 60 l-1377 0 26 26 c15
14 29 40 32 58 3 17 4 608 3 1313 l-3 1283 -25 24 c-24 24 -159 78 -1550 626
l-515 203 -196 193 c-188 187 -197 194 -235 194 -22 0 -48 -8 -60 -18 -12 -9
-256 -299 -543 -644 -288 -346 -526 -628 -530 -628 -4 0 -88 98 -187 218 -99
119 -335 404 -524 632 -189 228 -351 420 -359 427 -9 7 -33 13 -54 13 -36 0
-49 -11 -238 -192z m2498 -73 c0 -8 -4 -12 -9 -9 -5 3 -6 10 -3 15 9 13 12 11
12 -6z m-27 -39 c0 -3 -4 -8 -10 -11 -5 -3 -10 -1 -10 4 0 6 5 11 10 11 6 0
10 -2 10 -4z m-2116 -114 c3 -5 -1 -9 -9 -9 -8 0 -12 4 -9 9 3 4 7 8 9 8 2 0
6 -4 9 -8z m1937 -165 c-10 -9 -11 -8 -5 6 3 10 9 15 12 12 3 -3 0 -11 -7 -18z
m-61 -1 c0 -2 -8 -10 -17 -17 -16 -13 -17 -12 -4 4 13 16 21 21 21 13z m-2179
-378 c128 -205 333 -535 456 -733 123 -198 233 -368 245 -377 12 -11 37 -18
60 -18 43 0 42 -1 405 353 78 76 145 138 150 138 4 -1 104 -90 221 -199 118
-108 227 -203 244 -210 44 -19 88 -1 124 51 17 23 234 339 484 702 249 363
455 662 457 664 1 2 112 -39 246 -92 256 -102 819 -324 1354 -535 l323 -127 0
-1186 c0 -652 -2 -1188 -4 -1190 -2 -2 -252 -3 -555 -1 l-551 2 0 785 0 785
-29 32 c-24 27 -36 33 -71 33 -35 0 -47 -6 -71 -33 l-29 -32 0 -785 0 -785
-2120 -1 c-1166 -1 -2132 -1 -2147 -2 l-28 -1 -3 787 c-2 878 2 826 -71 848
-31 9 -43 8 -70 -6 -63 -32 -61 -7 -61 -855 l0 -770 -551 -2 c-303 -2 -553 -1
-555 1 -2 2 -4 538 -4 1190 l0 1186 568 224 c312 123 740 293 952 377 212 84
388 153 392 153 4 1 111 -167 239 -371z m2116 297 c0 -8 -4 -12 -9 -9 -5 3 -6
10 -3 15 9 13 12 11 12 -6z m-37 -39 c0 -2 -8 -10 -17 -17 -16 -13 -17 -12 -4
4 13 16 21 21 21 13z m413 -31 c-3 -9 -8 -14 -10 -11 -3 3 -2 9 2 15 9 16 15
13 8 -4z m-713 -329 c0 -2 -8 -10 -17 -17 -16 -13 -17 -12 -4 4 13 16 21 21
21 13z m-60 -70 c0 -2 -8 -10 -17 -17 -16 -13 -17 -12 -4 4 13 16 21 21 21 13z
m442 -88 c-7 -7 -12 -8 -12 -2 0 14 12 26 19 19 2 -3 -1 -11 -7 -17z m-1178 4
c3 -5 -1 -9 -9 -9 -8 0 -12 4 -9 9 3 4 7 8 9 8 2 0 6 -4 9 -8z m1086 -106 c0
-2 -8 -10 -17 -17 -16 -13 -17 -12 -4 4 13 16 21 21 21 13z"/>
<path d="M9412 6803 l3 -188 188 -3 187 -2 0 190 0 190 -190 0 -190 0 2 -187z"/>
<path d="M9410 6240 l0 -190 190 0 190 0 0 190 0 190 -190 0 -190 0 0 -190z"/>
<path d="M16538 8661 l-33 -29 -3 -115 -4 -115 -113 -4 c-104 -3 -116 -5 -139
-27 -51 -48 -43 -125 16 -161 27 -16 51 -20 135 -20 l101 0 4 -116 3 -116 33
-29 c22 -20 43 -29 67 -29 24 0 45 9 67 29 l33 29 3 115 4 115 114 4 c109 3
115 4 141 31 22 22 28 37 28 72 0 35 -6 50 -28 72 -26 27 -32 28 -141 31
l-114 4 -4 115 -3 115 -33 29 c-22 20 -43 29 -67 29 -24 0 -45 -9 -67 -29z"/>
<path d="M2962 6866 c-45 -16 -98 -70 -113 -113 -6 -19 -9 -57 -7 -84 16 -166
231 -229 331 -97 115 152 -34 359 -211 294z"/>
<path d="M2124 5381 c-63 -39 -70 -129 -14 -186 l30 -30 389 0 389 0 26 24
c59 55 56 134 -6 186 l-30 25 -376 0 c-351 0 -379 -1 -408 -19z"/>
<path d="M16348 5382 c-65 -40 -74 -131 -18 -187 l30 -30 138 -3 c124 -2 140
-1 170 18 41 25 66 81 57 126 -3 20 -20 45 -41 63 l-35 31 -137 0 c-111 0
-142 -4 -164 -18z"/>
<path d="M16948 5382 c-65 -40 -74 -131 -18 -187 26 -25 38 -30 80 -30 42 0
54 5 81 31 57 57 47 154 -21 189 -38 20 -88 19 -122 -3z"/>
</g>
</svg>
